<svg width="800" height="600" xmlns="http://www.w3.org/2000/svg">
 <!-- Created with Method Draw - http://github.com/duopixel/Method-Draw/ -->

 <g>
  <title>background</title>
  <rect fill="none" id="canvas_background" height="602" width="802" y="-1" x="-1"/>
  <g display="none" overflow="visible" y="0" x="0" height="100%" width="100%" id="canvasGrid">
   <rect fill="url(#gridpattern)" stroke-width="0" y="0" x="0" height="100%" width="100%"/>
  </g>
 </g>
 <g>
  <title>Layer 1</title>
  <g stroke="null" id="svg_75">
   <path stroke="rgb(0,0,0)" id="svg_4" d="m4.33334,196.55554l786.02108,0l1.31222,2.05201l0,190.83687l-786.02108,0l-1.31222,-2.05201l0,-190.83687zm86.60666,4.10402l-7.87333,16.41608l2.62444,20.52009l13.12222,8.20804l2.62444,16.41608l-10.49778,8.20804l-7.87333,24.62411l0,77.97636l7.87333,12.31206l13.12222,0l78.73333,-69.76832q10.49778,-4.10402 5.24889,-32.83215l-83.98222,-82.08038l-13.12222,0zm-34.11778,28.72813l-10.49778,16.41608q-5.24889,32.83215 10.49778,41.04019l18.37111,-8.20804q10.49778,-4.10402 7.87333,-28.72813l-15.74667,-20.52009l-10.49778,0zm162.71555,16.41608l-5.24889,4.10402l-13.12222,32.83215q0,24.62411 7.87333,36.93617l0,4.10402l-10.49778,0l0,36.93617l28.86889,-4.10402l10.49778,-20.52009q2.62444,-36.93617 -7.87333,-49.24823l13.12222,-8.20804q13.12222,-4.10402 13.12222,4.10402l0,77.97636l26.24444,0l0,-82.08038l15.74667,0l0,4.10402l0,77.97636l26.24444,0l2.62444,-24.62411l5.24889,20.52009l2.62444,4.10402l23.62,0q2.62444,-24.62411 -7.87333,-32.83215q-2.62444,-20.52009 5.24889,-24.62411q2.62444,-28.72813 -2.62444,-41.04019l-10.49778,-16.41608l-123.34888,0zm154.84222,0l-5.24889,4.10402l-7.87333,16.41608l0,77.97636q13.12222,24.62411 44.61555,16.41608l0,-32.83215l-15.74667,0l-2.62444,-8.20804l15.74667,0l0,-28.72813q-13.12222,4.10402 -15.74667,-4.10402l2.62444,-8.20804l15.74667,0l0,-32.83215l-31.49333,0zm55.11333,0l-10.49778,8.20804l-5.24889,16.41608l0,90.28841l26.24444,0l0,-20.52009l2.62444,0l0,20.52009l26.24444,0l0,-90.28841l-2.62444,-8.20804q-7.87333,-24.62411 -36.74222,-16.41608zm57.73778,0l-5.24889,4.10402l-7.87333,16.41608l0,94.39243l78.73333,0l0,-90.28841l-10.49778,-24.62411q-23.62,-8.20804 -28.86889,8.20804q-5.24889,-16.41608 -26.24444,-8.20804zm73.48444,0l0,98.49645l2.62444,8.20804l13.12222,8.20804q15.74667,4.10402 23.62,-8.20804l10.49778,8.20804l20.99555,-4.10402l7.87333,-16.41608l0,-94.39243l-78.73333,0zm86.60666,0l0,114.91253l26.24444,0l0,-114.91253l-26.24444,0zm34.11778,0l0,114.91253l26.24444,0l2.62444,-24.62411l5.24889,20.52009l2.62444,4.10402l23.62,0q2.62444,-24.62411 -7.87333,-32.83215q-2.62444,-20.52009 5.24889,-24.62411q2.62444,-28.72813 -2.62444,-41.04019l-10.49778,-16.41608l-44.61555,0zm76.10889,0l-5.24889,4.10402l-7.87333,16.41608l0,77.97636q13.12222,24.62411 44.61555,16.41608l0,-32.83215l-15.74667,0l-2.62444,-8.20804l15.74667,0l0,-28.72813q-13.12222,4.10402 -15.74667,-4.10402l2.62444,-8.20804l15.74667,0l0,-32.83215l-31.49333,0zm-745.34219,28.72813q-10.49778,4.10402 -5.24889,32.83215q2.62444,8.20804 13.12222,4.10402l7.87333,-16.41608l-2.62444,-8.20804q-2.62444,-16.41608 -13.12222,-12.31206zm28.86889,20.52009q-10.49778,4.10402 -7.87333,36.93617l13.12222,12.31206l13.12222,-8.20804l5.24889,-12.31206l-2.62444,-12.31206q-5.24889,-20.52009 -20.99555,-16.41608z" opacity="0" fill="#000000"/>
   <path stroke="rgb(0,0,0)" id="svg_5" d="m324.51555,278.63592q7.87333,-4.92482 5.24889,10.26005l-5.24889,4.10402l0,-14.36407z" opacity="0" fill="#000000"/>
   <path stroke="rgb(0,0,0)" id="svg_6" d="m441.30333,278.63592l1.31222,22.5721l-2.62444,0l1.31222,-22.5721z" opacity="0" fill="#000000"/>
   <path stroke="rgb(0,0,0)" id="svg_7" d="m707.68443,278.63592q7.87333,-4.92482 5.24889,10.26005l-5.24889,4.10402l0,-14.36407z" opacity="0" fill="#000000"/>
   <path stroke="rgb(255,38,38)" id="svg_8" d="m89.62779,200.65956l13.12222,0l85.29444,80.02837q3.93667,28.72813 -6.56111,34.88416l-78.73333,69.76832l-13.12222,0l-6.56111,-14.36407l0,-77.97636l7.87333,-22.5721l10.49778,-10.26005l-2.62444,-14.36407l-13.12222,-10.26005l-2.62444,-20.52009l6.56111,-14.36407z" opacity="0.91373" fill="#000000"/>
   <path stroke="rgb(251,251,251)" id="svg_9" d="m55.51001,229.38769l10.49778,0l17.05889,18.46808q2.62444,26.67612 -9.18556,30.78014l-18.37111,8.20804q-13.64711,-6.97683 -9.18556,-43.0922l9.18556,-14.36407zm3.93667,4.10402l-7.87333,4.10402l-2.62444,12.31206q-2.62444,24.62411 7.87333,32.83215l18.37111,-8.20804q7.87333,-4.10402 5.24889,-20.52009q-7.87333,-16.41608 -20.99555,-20.52009z" opacity="0.5098" fill="#000000"/>
   <path stroke="rgb(251,251,251)" id="svg_10" d="m239.22111,245.80377l1.31222,28.72813q14.172,-6.15603 18.37111,6.15603l0,75.92435l20.99555,0l0,-80.02837l1.31222,-2.05201l14.43444,0l0,-26.67612l5.24889,-2.05201l0,108.7565l1.31222,2.05201l20.99555,0l0,4.10402l-24.93222,0l0,-80.02837l-1.31222,-2.05201l-14.43444,0l0,82.08038l-26.24444,0l0,-80.02837q-0.26244,-4.51442 -14.43444,-2.05201l-3.93667,2.05201l1.31222,-34.88416z" opacity="0.5098" fill="#000000"/>
   <path stroke="rgb(251,251,251)" id="svg_11" d="m404.56111,245.80377l1.31222,32.83215l-17.05889,0l-1.31222,6.15603l1.31222,6.15603l-3.93667,-10.26005q4.19911,-12.31206 18.37111,-6.15603l1.31222,-28.72813z" opacity="0.5098" fill="#000000"/>
   <path stroke="rgb(251,251,251)" id="svg_12" d="m428.1811,245.80377l6.56111,2.05201l-9.18556,6.15603l2.62444,-8.20804z" opacity="0.5098" fill="#000000"/>
   <path stroke="rgb(251,251,251)" id="svg_13" d="m504.28999,245.80377l6.56111,6.15603l-3.93667,-2.05201l-2.62444,-4.10402z" opacity="0.5098" fill="#000000"/>
   <path stroke="rgb(251,251,251)" id="svg_14" d="m538.40777,245.80377l11.81,14.36407l-9.18556,-10.26005l-2.62444,-4.10402z" opacity="0.5098" fill="#000000"/>
   <path stroke="rgb(251,251,251)" id="svg_15" d="m585.64776,245.80377l1.31222,80.02837l-2.62444,0l1.31222,-80.02837z" opacity="0.5098" fill="#000000"/>
   <path stroke="rgb(251,251,251)" id="svg_16" d="m610.57999,245.80377l5.24889,2.05201l0,73.87234l-5.24889,4.10402l0,-80.02837z" opacity="0.5098" fill="#000000"/>
   <path stroke="rgb(251,251,251)" id="svg_17" d="m638.13665,245.80377l1.31222,92.34042l-2.62444,0l1.31222,-92.34042z" opacity="0.5098" fill="#000000"/>
   <path stroke="rgb(251,251,251)" id="svg_18" d="m648.63443,245.80377l1.31222,110.80851l23.62,2.05201l-26.24444,2.05201l1.31222,-114.91253z" opacity="0.5098" fill="#000000"/>
   <path stroke="rgb(251,251,251)" id="svg_19" d="m682.7522,245.80377l1.31222,110.80851l23.62,2.05201l-26.24444,2.05201l1.31222,-114.91253z" opacity="0.5098" fill="#000000"/>
   <path stroke="rgb(251,251,251)" id="svg_20" d="m787.72998,245.80377l1.31222,32.83215l-17.05889,0l-1.31222,6.15603l1.31222,6.15603l-3.93667,-10.26005q4.19911,-12.31206 18.37111,-6.15603l1.31222,-28.72813z" opacity="0.5098" fill="#000000"/>
   <path stroke="rgb(251,251,251)" id="svg_21" d="m212.97667,249.90779l-5.24889,12.31206l5.24889,-12.31206z" opacity="0.5098" fill="#000000"/>
   <path stroke="rgb(251,251,251)" id="svg_22" d="m346.82333,249.90779l5.24889,12.31206l-5.24889,-12.31206z" opacity="0.5098" fill="#000000"/>
   <path stroke="rgb(251,251,251)" id="svg_23" d="m367.81888,249.90779l-2.62444,8.20804l2.62444,-8.20804z" opacity="0.5098" fill="#000000"/>
   <path stroke="rgb(251,251,251)" id="svg_24" d="m459.67444,249.90779l9.18556,18.46808l0,92.34042l-26.24444,0l0,-22.5721l-2.62444,0l0,22.5721l-24.93222,0l0,-4.10402l22.30778,0l0,-24.62411l7.87333,0l0,24.62411l20.99555,0l0,-88.2364l-6.56111,-18.46808z" opacity="0.5098" fill="#000000"/>
   <path stroke="rgb(251,251,251)" id="svg_25" d="m480.66999,249.90779l-1.31222,6.15603l-3.93667,14.36407l-1.31222,-6.15603l6.56111,-14.36407z" opacity="0.5098" fill="#000000"/>
   <path stroke="rgb(251,251,251)" id="svg_26" d="m729.9922,249.90779l5.24889,12.31206l-5.24889,-12.31206z" opacity="0.5098" fill="#000000"/>
   <path stroke="rgb(251,251,251)" id="svg_27" d="m750.98776,249.90779l-2.62444,8.20804l2.62444,-8.20804z" opacity="0.5098" fill="#000000"/>
   <path stroke="rgb(251,251,251)" id="svg_28" d="m417.68333,262.21984l-1.31222,6.15603l-1.31222,10.26005l-1.31222,-10.26005l3.93667,-6.15603z" opacity="0.5098" fill="#000000"/>
   <path stroke="rgb(251,251,251)" id="svg_29" d="m551.52999,266.32386l1.31222,94.39243l-78.73333,-2.05201l23.62,-2.05201l1.31222,-77.97636l1.31222,77.97636l23.62,0l0,-75.92435l5.24889,-2.05201l0,77.97636l20.99555,0l1.31222,-90.28841z" opacity="0.5098" fill="#000000"/>
   <path stroke="rgb(251,251,251)" id="svg_30" d="m10.89446,274.5319q12.59733,-2.87281 14.43444,10.26005l2.62444,8.20804l-9.18556,18.46808q-9.71044,3.28322 -11.81,-6.15603l1.31222,-6.15603l10.49778,8.20804q6.56111,-4.10402 3.93667,-22.5721l-9.18556,-6.15603l-5.24889,4.10402l2.62444,-8.20804z" opacity="0.5098" fill="#000000"/>
   <path stroke="rgb(251,251,251)" id="svg_31" d="m325.82778,274.5319l6.56111,6.15603l-3.93667,14.36407l1.31222,-6.15603q2.88689,-13.54326 -3.93667,-10.26005l0,-4.10402z" opacity="0.5098" fill="#000000"/>
   <path stroke="rgb(251,251,251)" id="svg_32" d="m708.99665,274.5319l6.56111,6.15603l-3.93667,14.36407l1.31222,-6.15603q2.88689,-13.54326 -3.93667,-10.26005l0,-4.10402z" opacity="0.5098" fill="#000000"/>
   <path stroke="rgb(251,251,251)" id="svg_33" d="m202.47889,278.63592l1.31222,10.26005l-2.62444,0l1.31222,-10.26005z" opacity="0.5098" fill="#000000"/>
   <path stroke="rgb(251,251,251)" id="svg_34" d="m438.67888,278.63592l1.31222,22.5721l-2.62444,0l1.31222,-22.5721z" opacity="0.5098" fill="#000000"/>
   <path stroke="rgb(251,251,251)" id="svg_35" d="m443.92777,278.63592l1.31222,22.5721l-2.62444,0l1.31222,-22.5721z" opacity="0.5098" fill="#000000"/>
   <path stroke="rgb(251,251,251)" id="svg_36" d="m231.34778,286.84396l3.93667,10.26005l-5.24889,-4.10402l1.31222,-6.15603z" opacity="0.5098" fill="#000000"/>
   <path stroke="rgb(251,251,251)" id="svg_37" d="m39.76334,295.05199q18.10867,-3.69362 22.30778,14.36407l2.62444,12.31206l-6.56111,14.36407l-13.12222,8.20804l-11.81,-14.36407q-3.93667,-28.72813 6.56111,-34.88416zm1.31222,4.10402q-7.87333,4.10402 -5.24889,28.72813q2.62444,12.31206 18.37111,8.20804q7.87333,-4.10402 5.24889,-24.62411q-5.24889,-16.41608 -18.37111,-12.31206z" opacity="0.5098" fill="#000000"/>
   <path stroke="rgb(251,251,251)" id="svg_38" d="m354.69666,295.05199l1.31222,6.15603l-6.56111,22.5721l-1.31222,-10.26005l6.56111,-18.46808z" opacity="0.5098" fill="#000000"/>
   <path stroke="rgb(251,251,251)" id="svg_39" d="m737.86554,295.05199l1.31222,6.15603l-6.56111,22.5721l-1.31222,-10.26005l6.56111,-18.46808z" opacity="0.5098" fill="#000000"/>
   <path stroke="rgb(251,251,251)" id="svg_40" d="m205.10334,299.15601l6.56111,22.5721l-6.56111,6.15603l0,-4.10402q6.03622,3.28322 3.93667,-6.15603l-3.93667,-18.46808z" opacity="0.5098" fill="#000000"/>
   <path stroke="rgb(251,251,251)" id="svg_41" d="m236.59667,303.26003l1.31222,10.26005l-2.62444,0l1.31222,-10.26005z" opacity="0.5098" fill="#000000"/>
   <path stroke="rgb(251,251,251)" id="svg_42" d="m388.81444,315.57209l14.43444,2.05201l-14.43444,2.05201l0,-4.10402z" opacity="0.5098" fill="#000000"/>
   <path stroke="rgb(251,251,251)" id="svg_43" d="m771.98331,315.57209l14.43444,2.05201l-14.43444,2.05201l0,-4.10402z" opacity="0.5098" fill="#000000"/>
   <path stroke="rgb(251,251,251)" id="svg_44" d="m236.59667,323.78012l1.31222,10.26005l-2.62444,0l1.31222,-10.26005z" opacity="0.5098" fill="#000000"/>
   <path stroke="rgb(251,251,251)" id="svg_45" d="m325.82778,327.88414l3.93667,14.36407l-2.62444,0l-1.31222,-14.36407z" opacity="0.5098" fill="#000000"/>
   <path stroke="rgb(251,251,251)" id="svg_46" d="m352.07222,327.88414l6.56111,22.5721l-2.62444,0l-3.93667,-22.5721z" opacity="0.5098" fill="#000000"/>
   <path stroke="rgb(251,251,251)" id="svg_47" d="m404.56111,327.88414l1.31222,32.83215l-28.86889,-2.05201l26.24444,-2.05201l1.31222,-28.72813z" opacity="0.5098" fill="#000000"/>
   <path stroke="rgb(251,251,251)" id="svg_48" d="m708.99665,327.88414l3.93667,14.36407l-2.62444,0l-1.31222,-14.36407z" opacity="0.5098" fill="#000000"/>
   <path stroke="rgb(251,251,251)" id="svg_49" d="m735.24109,327.88414l6.56111,22.5721l-2.62444,0l-3.93667,-22.5721z" opacity="0.5098" fill="#000000"/>
   <path stroke="rgb(251,251,251)" id="svg_50" d="m787.72998,327.88414l1.31222,32.83215l-28.86889,-2.05201l26.24444,-2.05201l1.31222,-28.72813z" opacity="0.5098" fill="#000000"/>
   <path stroke="rgb(251,251,251)" id="svg_51" d="m362.57,336.09218l9.18556,18.46808l-10.49778,-12.31206l1.31222,-6.15603z" opacity="0.5098" fill="#000000"/>
   <path stroke="rgb(251,251,251)" id="svg_52" d="m562.02777,336.09218l3.93667,14.36407l-2.62444,0l-1.31222,-14.36407z" opacity="0.5098" fill="#000000"/>
   <path stroke="rgb(251,251,251)" id="svg_53" d="m745.73887,336.09218l9.18556,18.46808l-10.49778,-12.31206l1.31222,-6.15603z" opacity="0.5098" fill="#000000"/>
   <path stroke="rgb(251,251,251)" id="svg_54" d="m233.97222,340.1962l-7.87333,16.41608l-3.93667,-2.05201l11.81,-14.36407z" opacity="0.5098" fill="#000000"/>
   <path stroke="rgb(251,251,251)" id="svg_55" d="m635.51221,344.30022l-5.24889,12.31206l-3.93667,-2.05201l9.18556,-10.26005z" opacity="0.5098" fill="#000000"/>
   <path stroke="rgb(251,251,251)" id="svg_56" d="m598.76999,348.40424l-2.62444,8.20804l2.62444,-8.20804z" opacity="0.5098" fill="#000000"/>
   <path stroke="rgb(251,251,251)" id="svg_57" d="m199.85445,356.61227l19.68333,2.05201l-19.68333,2.05201l0,-4.10402z" opacity="0.5098" fill="#000000"/>
   <path stroke="rgb(251,251,251)" id="svg_58" d="m333.70111,356.61227l24.93222,2.05201l-24.93222,2.05201l0,-4.10402z" opacity="0.5098" fill="#000000"/>
   <path stroke="rgb(251,251,251)" id="svg_59" d="m575.14999,356.61227l17.05889,2.05201l-17.05889,2.05201l0,-4.10402z" opacity="0.5098" fill="#000000"/>
   <path stroke="rgb(251,251,251)" id="svg_60" d="m609.26776,356.61227l14.43444,2.05201l-14.43444,2.05201l0,-4.10402z" opacity="0.5098" fill="#000000"/>
   <path stroke="rgb(251,251,251)" id="svg_61" d="m716.86998,356.61227l24.93222,2.05201l-24.93222,2.05201l0,-4.10402z" opacity="0.5098" fill="#000000"/>
   <path stroke="rgb(253,253,253)" id="svg_62" d="m58.13445,233.49171q15.48422,2.46241 22.30778,18.46808q2.09956,19.69929 -6.56111,22.5721l-18.37111,8.20804q-9.18556,-8.20804 -6.56111,-34.88416l2.62444,-10.26005l6.56111,-4.10402z" opacity="0.99608" fill="#000000"/>
   <path stroke="rgb(253,253,253)" id="svg_63" d="m13.5189,278.63592l9.18556,6.15603q2.62444,18.46808 -3.93667,22.5721q-10.49778,2.05201 -11.81,-10.26005q-3.93667,-18.05768 3.93667,-14.36407l2.62444,-4.10402z" opacity="0.99608" fill="#000000"/>
   <path stroke="rgb(253,253,253)" id="svg_64" d="m39.76334,299.15601q15.22178,-3.28322 19.68333,10.26005q2.62444,22.5721 -6.56111,26.67612q-14.43444,4.10402 -17.05889,-10.26005q-3.14933,-21.3409 3.93667,-26.67612z" opacity="0.99608" fill="#000000"/>
   <path stroke="rgb(255,255,255)" id="svg_65" d="m223.47445,245.80377l14.43444,0l0,34.88416l-3.93667,-2.05201q-7.87333,-3.69362 -3.93667,14.36407l5.24889,8.20804l2.62444,20.52009l-2.62444,16.41608l-9.18556,14.36407l-27.55667,4.10402l0,-30.78014l3.93667,-2.05201l5.24889,4.10402l3.93667,-10.26005q-10.76022,-11.90165 -7.87333,-45.14421l11.81,-22.5721l7.87333,-4.10402z" fill="#000000"/>
   <path stroke="rgb(255,255,255)" id="svg_66" d="m240.53333,245.80377l55.11333,0l0,28.72813l-14.43444,0l-1.31222,2.05201l0,80.02837l-20.99555,0l0,-75.92435l-3.93667,-6.15603l-14.43444,0l0,-28.72813z" fill="#000000"/>
   <path stroke="rgb(255,255,255)" id="svg_67" d="m300.89555,245.80377l35.43,0l17.05889,18.46808l2.62444,28.72813l-7.87333,28.72813l10.49778,32.83215l-26.24444,2.05201l-6.56111,-28.72813l-1.31222,28.72813l-23.62,0l0,-110.80851zm23.62,28.72813l0,20.52009l5.24889,0l2.62444,-12.31206l-7.87333,-8.20804z" fill="#000000"/>
   <path stroke="rgb(255,255,255)" id="svg_68" d="m378.31666,245.80377l24.93222,0l0,28.72813q-14.172,-6.15603 -18.37111,6.15603l3.93667,10.26005l14.43444,0l0,24.62411q-14.172,-6.15603 -18.37111,6.15603l1.31222,6.15603l17.05889,0l0,28.72813l-30.18111,0l-9.18556,-14.36407l-2.62444,-8.20804l0,-61.56028l9.18556,-22.5721l7.87333,-4.10402z" fill="#000000"/>
   <path stroke="rgb(255,255,255)" id="svg_69" d="m436.05444,245.80377q20.99555,-4.10402 27.55667,14.36407l2.62444,8.20804l0,88.2364l-20.99555,0l0,-24.62411l-7.87333,0l0,24.62411l-23.62,0l0,-75.92435l9.18556,-26.67612l13.12222,-8.20804zm1.31222,32.83215l0,24.62411l7.87333,0l0,-24.62411l-7.87333,0z" fill="#000000"/>
   <path stroke="rgb(255,255,255)" id="svg_70" d="m491.16777,245.80377l10.49778,0l13.12222,8.20804q6.03622,-11.08085 20.99555,-8.20804l14.43444,18.46808l0,92.34042l-20.99555,0l0,-75.92435l-5.24889,-2.05201l0,77.97636l-23.62,0l-1.31222,-77.97636l-1.31222,77.97636l-23.62,0l0,-84.13239l9.18556,-22.5721l7.87333,-4.10402z" fill="#000000"/>
   <path stroke="rgb(255,255,255)" id="svg_71" d="m560.71554,245.80377l23.62,0l0,80.02837l2.62444,0l0,-80.02837l23.62,0l1.31222,82.08038l3.93667,-6.15603l0,-75.92435l19.68333,0l1.31222,2.05201l0,94.39243q-6.56111,20.52009 -30.18111,14.36407l-7.87333,-8.20804q-5.24889,16.41608 -26.24444,8.20804l-6.56111,-4.10402l-5.24889,-18.46808l0,-88.2364z" fill="#000000"/>
   <path stroke="rgb(255,255,255)" id="svg_72" d="m649.94665,245.80377l23.62,0l0,110.80851l-23.62,0l0,-110.80851z" fill="#000000"/>
   <path stroke="rgb(255,255,255)" id="svg_73" d="m684.06443,245.80377l35.43,0l17.05889,18.46808l2.62444,28.72813l-7.87333,28.72813l10.49778,32.83215l-26.24444,2.05201l-6.56111,-28.72813l-1.31222,28.72813l-23.62,0l0,-110.80851zm23.62,28.72813l0,20.52009l5.24889,0l2.62444,-12.31206l-7.87333,-8.20804z" fill="#000000"/>
   <path stroke="rgb(255,255,255)" id="svg_74" d="m761.48553,245.80377l24.93222,0l0,28.72813q-14.172,-6.15603 -18.37111,6.15603l3.93667,10.26005l14.43444,0l0,24.62411q-14.172,-6.15603 -18.37111,6.15603l1.31222,6.15603l17.05889,0l0,28.72813l-30.18111,0l-9.18556,-14.36407l-2.62444,-8.20804l0,-61.56028l9.18556,-22.5721l7.87333,-4.10402z" fill="#000000"/>
  </g>
 </g>
</svg>